<?xml version="1.0" standalone="no"?><!DOCTYPE svg PUBLIC "-//W3C//DTD SVG 1.1//EN" "http://www.w3.org/Graphics/SVG/1.1/DTD/svg11.dtd"><svg t="1515547351630" class="icon" style="" viewBox="0 0 1204 1024" version="1.1" xmlns="http://www.w3.org/2000/svg" p-id="1002" xmlns:xlink="http://www.w3.org/1999/xlink" width="235.15625" height="200"><defs><style type="text/css"></style></defs><path d="M1002.736941 39.875765H143.540706C64.813176 39.875765 0.361412 102.4 0.361412 178.718118v694.031058c0 76.378353 64.451765 138.842353 143.179294 138.842353h859.196235c78.727529 0 143.179294-62.464 143.179294-138.842353V178.718118c0-76.378353-64.451765-138.842353-143.179294-138.842353z m71.55953 753.904941L902.505412 581.270588c-21.504-34.695529-64.451765-34.695529-93.06353-6.987294l-200.523294 194.379294-207.631059-256.843294c-21.443765-27.708235-57.223529-27.708235-85.895529 0L71.981176 796.310588V178.718118c0-41.682824 28.611765-69.451294 71.55953-69.451294h859.196235c35.779765 0 71.559529 34.695529 71.55953 69.451294v615.002353z m-246.241883-515.192471a108.122353 108.122353 0 0 0-75.89647-30.479059 107.881412 107.881412 0 0 0-75.896471 30.479059 104.207059 104.207059 0 0 0-23.371294 33.731765 101.616941 101.616941 0 0 0 23.311059 113.483294c9.938824 9.637647 21.805176 17.347765 34.816 22.588235a110.712471 110.712471 0 0 0 82.221176 0c13.010824-5.240471 24.877176-12.890353 34.816-22.588235a104.207059 104.207059 0 0 0 23.311059-33.731765 101.616941 101.616941 0 0 0-23.311059-113.483294z" p-id="1003" fill="#dbdbdb"></path></svg>