<?xml version="1.0" standalone="no"?><!DOCTYPE svg PUBLIC "-//W3C//DTD SVG 1.1//EN" "http://www.w3.org/Graphics/SVG/1.1/DTD/svg11.dtd"><svg t="1525850192002" class="icon" style="" viewBox="0 0 1024 1024" version="1.1" xmlns="http://www.w3.org/2000/svg" p-id="2597" xmlns:xlink="http://www.w3.org/1999/xlink" width="128" height="128"><defs><style type="text/css"></style></defs><path d="M212.287941 198.345394c5.963829-0.343831 10.906397-4.735861 11.995195-10.609639 7.329942-39.565111 25.974581-58.483996 56.973596-59.57791 34.109866-1.203408 52.905954 15.990183 62.60178 59.035558 1.337461 5.940292 6.573719 10.187013 12.663414 10.187013l305.425178 0c4.722558 0 9.060353-2.576685 11.354606-6.704702 10.552334-18.98847 18.760273-37.241182 31.615045-51.219545 7.762801-8.445346 25.445532-10.68434 38.628786-10.641361 29.53057 0.103354 46.270836 18.537192 54.647621 59.563584 1.237177 6.060019 6.564509 10.422374 12.748349 10.397814 6.009877-0.024559 12.165064-0.038886 18.315134 0.057305 42.514279 0.652869 65.540715 22.899546 65.73719 65.491597 0.449231 96.91733 0.161682 193.847963 0.164752 290.776549 0 89.581248 0.118704 179.166589-0.053212 268.75193-0.096191 51.658544-20.531616 72.002894-71.968102 72.010057-207.015867 0.053212-414.030711 0.053212-621.050672 0.007163-54.311976-0.01535-74.627674-20.167319-74.635861-73.987085-0.041956-182.841282-0.030699-365.68154-0.008186-548.518728 0.008186-53.604872 20.48966-74.033134 74.508971-74.609255C205.335598 198.717877 208.716602 198.551078 212.287941 198.345394zM187.060373 410.468582c-7.161097 0-12.96529 5.805216-12.96529 12.96529l0 12.518105c0 127.72601-0.019443 255.44588 0.019443 383.167796 0.007163 28.574802 0.832971 29.392424 29.872355 29.392424 204.765617 0.034792 409.53942 0.034792 614.30913 0.007163 29.749558-0.007163 30.916127-1.074472 30.93557-30.996968 0.076748-126.993323-0.491187-253.993808 0.533143-380.975874 0.172939-21.890566-6.895037-26.582425-27.503401-26.51284-206.969818 0.722454-413.942707 0.433882-620.915595 0.433882L187.060373 410.467559zM700.880835 240.331647c0.099261 0 0.195451 0 0.298805 0 0 18.289552-1.255597 36.68962 0.319272 54.842049 1.926886 22.166859 17.533328 36.002982 37.177737 35.864836 20.481474-0.138146 36.075637-15.482623 36.655851-38.625716 0.856507-34.378995 0.782829-68.804039 0.080841-103.187127-0.475837-22.953781-15.683191-38.267559-36.475749-39.024805-20.036335-0.729617-36.452213 14.727423-37.841863 37.45403C700.020234 205.15345 700.880835 222.763526 700.880835 240.331647zM246.542092 238.416018c0.100284 0 0.195451 0 0.299829 0 0 19.030425-1.213641 38.161135 0.318248 57.068763 1.739621 21.51399 18.20871 35.873022 37.59627 35.565007 19.85214-0.311085 35.58445-14.645558 36.290531-36.686551 1.14815-35.834136 1.139963-71.76037-0.026606-107.594507-0.710175-21.61018-16.980743-36.302811-36.586267-36.616966-20.209274-0.318248-36.533055 15.375176-37.714973 37.756929C245.828848 204.701149 246.542092 221.577514 246.542092 238.416018zM264.927835 758.531859l0-25.520233c0-7.161097 5.805216-12.96529 12.96529-12.96529l81.133855 0c7.161097 0 12.96529 5.805216 12.96529 12.96529l0 25.520233c0 7.161097-5.805216 12.96529-12.96529 12.96529l-81.133855 0C270.733051 771.497149 264.927835 765.691933 264.927835 758.531859zM458.997855 759.050676l0-26.234501c0-7.161097 5.805216-12.96529 12.96529-12.96529l80.373539 0c7.161097 0 12.96529 5.805216 12.96529 12.96529l0 26.234501c0 7.161097-5.805216 12.96529-12.96529 12.96529l-80.373539 0C464.803072 772.015965 458.997855 766.210749 458.997855 759.050676zM651.969868 759.145843l0-26.330692c0-7.161097 5.805216-12.96529 12.96529-12.96529l77.367065 0c7.161097 0 12.96529 5.805216 12.96529 12.96529l0 26.330692c0 7.161097-5.805216 12.96529-12.96529 12.96529l-77.367065 0C657.775084 772.111133 651.969868 766.30694 651.969868 759.145843zM372.679931 512.820692l0 24.207331c0 7.161097-5.805216 12.96529-12.96529 12.96529l-80.922031 0c-7.161097 0-12.96529-5.805216-12.96529-12.96529l0-24.207331c0-7.161097 5.805216-12.96529 12.96529-12.96529l80.922031 0C366.874715 499.854379 372.679931 505.658571 372.679931 512.820692zM459.128839 536.824385l0-24.134677c0-7.161097 5.805216-12.96529 12.96529-12.96529l80.285534 0c7.161097 0 12.96529 5.804193 12.96529 12.96529l0 24.134677c0 7.161097-5.805216 12.96529-12.96529 12.96529l-80.285534 0C464.933031 549.789675 459.128839 543.984459 459.128839 536.824385zM265.273712 647.044696l0-23.589254c0-7.161097 5.805216-12.96529 12.96529-12.96529l81.033571 0c7.161097 0 12.96529 5.805216 12.96529 12.96529l0 23.589254c0 7.161097-5.805216 12.96529-12.96529 12.96529l-81.033571 0C271.077905 660.009985 265.273712 654.204769 265.273712 647.044696zM472.282417 610.29777l79.786161 0c7.161097 0 12.96529 5.804193 12.96529 12.96529l0 23.762193c0 7.161097-5.805216 12.96529-12.96529 12.96529l-79.786161 0c-7.161097 0-12.96529-5.805216-12.96529-12.96529l0-23.762193C459.316104 616.101963 465.12132 610.29777 472.282417 610.29777zM742.590795 550.120203l-77.581959 0c-7.161097 0-12.96529-5.805216-12.96529-12.96529l0-24.14184c0-7.161097 5.805216-12.96529 12.96529-12.96529l77.581959 0c7.161097 0 12.96529 5.805216 12.96529 12.96529l0 24.14184C755.556085 544.314986 749.751892 550.120203 742.590795 550.120203zM756.221234 624.030539l0 23.036669c0 7.161097-5.805216 12.96529-12.96529 12.96529l-77.993329 0c-7.161097 0-12.96529-5.804193-12.96529-12.96529l0-23.036669c0-7.161097 5.805216-12.96529 12.96529-12.96529l77.993329 0C750.416018 611.06525 756.221234 616.870466 756.221234 624.030539z" p-id="2598" fill="#1296db"></path></svg>